<svg width="202" height="39" viewBox="0 0 202 39" fill="none" xmlns="http://www.w3.org/2000/svg">
<path d="M45.91 19.9C45.91 18.1147 46.3087 16.52 47.106 15.116C47.9207 13.6947 49.0213 12.594 50.408 11.814C51.812 11.0167 53.3807 10.618 55.114 10.618C57.142 10.618 58.9187 11.138 60.444 12.178C61.9693 13.218 63.0353 14.6567 63.642 16.494H59.456C59.04 15.6273 58.4507 14.9773 57.688 14.544C56.9427 14.1107 56.076 13.894 55.088 13.894C54.0307 13.894 53.086 14.1453 52.254 14.648C51.4393 15.1333 50.798 15.8267 50.33 16.728C49.8793 17.6293 49.654 18.6867 49.654 19.9C49.654 21.096 49.8793 22.1533 50.33 23.072C50.798 23.9733 51.4393 24.6753 52.254 25.178C53.086 25.6633 54.0307 25.906 55.088 25.906C56.076 25.906 56.9427 25.6893 57.688 25.256C58.4507 24.8053 59.04 24.1467 59.456 23.28H63.642C63.0353 25.1347 61.9693 26.582 60.444 27.622C58.936 28.6447 57.1593 29.156 55.114 29.156C53.3807 29.156 51.812 28.766 50.408 27.986C49.0213 27.1887 47.9207 26.088 47.106 24.684C46.3087 23.28 45.91 21.6853 45.91 19.9ZM70.651 16.832C71.119 16.0693 71.7257 15.4713 72.471 15.038C73.2337 14.6047 74.1004 14.388 75.071 14.388V18.21H74.109C72.965 18.21 72.0984 18.4787 71.509 19.016C70.937 19.5533 70.651 20.4893 70.651 21.824V29H67.011V14.596H70.651V16.832ZM91.1728 21.486C91.1728 22.006 91.1381 22.474 91.0688 22.89H80.5388C80.6254 23.93 80.9894 24.7447 81.6308 25.334C82.2721 25.9233 83.0608 26.218 83.9968 26.218C85.3488 26.218 86.3108 25.6373 86.8828 24.476H90.8088C90.3928 25.8627 89.5954 27.0067 88.4168 27.908C87.2381 28.792 85.7908 29.234 84.0748 29.234C82.6881 29.234 81.4401 28.9307 80.3308 28.324C79.2388 27.7 78.3808 26.8247 77.7568 25.698C77.1501 24.5713 76.8468 23.2713 76.8468 21.798C76.8468 20.3073 77.1501 18.9987 77.7568 17.872C78.3634 16.7453 79.2128 15.8787 80.3048 15.272C81.3968 14.6653 82.6534 14.362 84.0748 14.362C85.4441 14.362 86.6661 14.6567 87.7408 15.246C88.8328 15.8353 89.6734 16.676 90.2628 17.768C90.8694 18.8427 91.1728 20.082 91.1728 21.486ZM87.4028 20.446C87.3854 19.51 87.0474 18.7647 86.3888 18.21C85.7301 17.638 84.9241 17.352 83.9708 17.352C83.0694 17.352 82.3068 17.6293 81.6828 18.184C81.0761 18.7213 80.7034 19.4753 80.5648 20.446H87.4028ZM93.1536 21.746C93.1536 20.29 93.4396 18.9987 94.0116 17.872C94.601 16.7453 95.3896 15.8787 96.3776 15.272C97.383 14.6653 98.501 14.362 99.7316 14.362C100.806 14.362 101.742 14.5787 102.54 15.012C103.354 15.4453 104.004 15.9913 104.49 16.65V14.596H108.156V29H104.49V26.894C104.022 27.57 103.372 28.1333 102.54 28.584C101.725 29.0173 100.78 29.234 99.7056 29.234C98.4923 29.234 97.383 28.922 96.3776 28.298C95.3896 27.674 94.601 26.7987 94.0116 25.672C93.4396 24.528 93.1536 23.2193 93.1536 21.746ZM104.49 21.798C104.49 20.914 104.316 20.16 103.97 19.536C103.623 18.8947 103.155 18.4093 102.566 18.08C101.976 17.7333 101.344 17.56 100.668 17.56C99.9916 17.56 99.3676 17.7247 98.7956 18.054C98.2236 18.3833 97.7556 18.8687 97.3916 19.51C97.045 20.134 96.8716 20.8793 96.8716 21.746C96.8716 22.6127 97.045 23.3753 97.3916 24.034C97.7556 24.6753 98.2236 25.1693 98.7956 25.516C99.385 25.8627 100.009 26.036 100.668 26.036C101.344 26.036 101.976 25.8713 102.566 25.542C103.155 25.1953 103.623 24.71 103.97 24.086C104.316 23.4447 104.49 22.682 104.49 21.798ZM116.209 17.586V24.554C116.209 25.0393 116.321 25.3947 116.547 25.62C116.789 25.828 117.188 25.932 117.743 25.932H119.433V29H117.145C114.077 29 112.543 27.5093 112.543 24.528V17.586H110.827V14.596H112.543V11.034H116.209V14.596H119.433V17.586H116.209ZM135.701 21.486C135.701 22.006 135.666 22.474 135.597 22.89H125.067C125.153 23.93 125.517 24.7447 126.159 25.334C126.8 25.9233 127.589 26.218 128.525 26.218C129.877 26.218 130.839 25.6373 131.411 24.476H135.337C134.921 25.8627 134.123 27.0067 132.945 27.908C131.766 28.792 130.319 29.234 128.603 29.234C127.216 29.234 125.968 28.9307 124.859 28.324C123.767 27.7 122.909 26.8247 122.285 25.698C121.678 24.5713 121.375 23.2713 121.375 21.798C121.375 20.3073 121.678 18.9987 122.285 17.872C122.891 16.7453 123.741 15.8787 124.833 15.272C125.925 14.6653 127.181 14.362 128.603 14.362C129.972 14.362 131.194 14.6567 132.269 15.246C133.361 15.8353 134.201 16.676 134.791 17.768C135.397 18.8427 135.701 20.082 135.701 21.486ZM131.931 20.446C131.913 19.51 131.575 18.7647 130.917 18.21C130.258 17.638 129.452 17.352 128.499 17.352C127.597 17.352 126.835 17.6293 126.211 18.184C125.604 18.7213 125.231 19.4753 125.093 20.446H131.931ZM149.311 17.586V24.554C149.311 25.0393 149.424 25.3947 149.649 25.62C149.892 25.828 150.29 25.932 150.845 25.932H152.535V29H150.247C147.179 29 145.645 27.5093 145.645 24.528V17.586H143.929V14.596H145.645V11.034H149.311V14.596H152.535V17.586H149.311ZM154.477 21.746C154.477 20.29 154.763 18.9987 155.335 17.872C155.924 16.7453 156.713 15.8787 157.701 15.272C158.706 14.6653 159.824 14.362 161.055 14.362C162.13 14.362 163.066 14.5787 163.863 15.012C164.678 15.4453 165.328 15.9913 165.813 16.65V14.596H169.479V29H165.813V26.894C165.345 27.57 164.695 28.1333 163.863 28.584C163.048 29.0173 162.104 29.234 161.029 29.234C159.816 29.234 158.706 28.922 157.701 28.298C156.713 27.674 155.924 26.7987 155.335 25.672C154.763 24.528 154.477 23.2193 154.477 21.746ZM165.813 21.798C165.813 20.914 165.64 20.16 165.293 19.536C164.946 18.8947 164.478 18.4093 163.889 18.08C163.3 17.7333 162.667 17.56 161.991 17.56C161.315 17.56 160.691 17.7247 160.119 18.054C159.547 18.3833 159.079 18.8687 158.715 19.51C158.368 20.134 158.195 20.8793 158.195 21.746C158.195 22.6127 158.368 23.3753 158.715 24.034C159.079 24.6753 159.547 25.1693 160.119 25.516C160.708 25.8627 161.332 26.036 161.991 26.036C162.667 26.036 163.3 25.8713 163.889 25.542C164.478 25.1953 164.946 24.71 165.293 24.086C165.64 23.4447 165.813 22.682 165.813 21.798ZM178.806 29.234C177.627 29.234 176.57 29.026 175.634 28.61C174.698 28.1767 173.953 27.596 173.398 26.868C172.861 26.14 172.566 25.334 172.514 24.45H176.18C176.249 25.0047 176.518 25.464 176.986 25.828C177.471 26.192 178.069 26.374 178.78 26.374C179.473 26.374 180.011 26.2353 180.392 25.958C180.791 25.6807 180.99 25.3253 180.99 24.892C180.99 24.424 180.747 24.0773 180.262 23.852C179.794 23.6093 179.04 23.3493 178 23.072C176.925 22.812 176.041 22.5433 175.348 22.266C174.672 21.9887 174.083 21.564 173.58 20.992C173.095 20.42 172.852 19.6487 172.852 18.678C172.852 17.8807 173.077 17.1527 173.528 16.494C173.996 15.8353 174.655 15.3153 175.504 14.934C176.371 14.5527 177.385 14.362 178.546 14.362C180.262 14.362 181.631 14.7953 182.654 15.662C183.677 16.5113 184.24 17.664 184.344 19.12H180.86C180.808 18.548 180.565 18.0973 180.132 17.768C179.716 17.4213 179.153 17.248 178.442 17.248C177.783 17.248 177.272 17.3693 176.908 17.612C176.561 17.8547 176.388 18.1927 176.388 18.626C176.388 19.1113 176.631 19.484 177.116 19.744C177.601 19.9867 178.355 20.238 179.378 20.498C180.418 20.758 181.276 21.0267 181.952 21.304C182.628 21.5813 183.209 22.0147 183.694 22.604C184.197 23.176 184.457 23.9387 184.474 24.892C184.474 25.724 184.24 26.4693 183.772 27.128C183.321 27.7867 182.663 28.3067 181.796 28.688C180.947 29.052 179.95 29.234 178.806 29.234ZM196.25 29L191.362 22.864V29H187.722V9.76H191.362V20.706L196.198 14.596H200.93L194.586 21.824L200.982 29H196.25Z" fill="black"/>
<path d="M18.5003 35.8876C17.4674 35.8876 16.419 35.6564 15.602 35.1784L7.12284 30.2914C3.66951 27.9634 3.45367 27.6089 3.45367 23.9551V15.0443C3.45367 11.3905 3.65409 11.0359 7.04576 8.73887L15.5865 3.80553C17.2053 2.86512 19.749 2.86512 21.3678 3.80553L29.8778 8.70803C33.3311 11.0359 33.547 11.3905 33.547 15.0443V23.9397C33.547 27.5934 33.3465 27.948 29.9549 30.2451L21.414 35.1784C20.5815 35.6564 19.5332 35.8876 18.5003 35.8876ZM18.5003 5.42428C17.8528 5.42428 17.2207 5.54762 16.7736 5.8097L8.29451 10.7122C5.78159 12.408 5.78159 12.408 5.78159 15.0443V23.9397C5.78159 26.5759 5.78159 26.5759 8.35617 28.318L16.7736 33.1743C17.6832 33.6984 19.3328 33.6984 20.2424 33.1743L28.7215 28.2718C31.219 26.5759 31.219 26.5759 31.219 23.9397V15.0443C31.219 12.408 31.219 12.408 28.6445 10.6659L20.227 5.8097C19.7799 5.54762 19.1478 5.42428 18.5003 5.42428Z" fill="black"/>
<path d="M18.5 25.2812C15.3088 25.2812 12.7188 22.6912 12.7188 19.5C12.7188 16.3088 15.3088 13.7188 18.5 13.7188C21.6912 13.7188 24.2812 16.3088 24.2812 19.5C24.2812 22.6912 21.6912 25.2812 18.5 25.2812ZM18.5 16.0312C16.5883 16.0312 15.0312 17.5883 15.0312 19.5C15.0312 21.4117 16.5883 22.9688 18.5 22.9688C20.4117 22.9688 21.9688 21.4117 21.9688 19.5C21.9688 17.5883 20.4117 16.0312 18.5 16.0312Z" fill="black"/>
</svg>
